<svg width="22" height="22" viewBox="0 0 22 22" fill="none" xmlns="http://www.w3.org/2000/svg">
  <path d="M16.1706 17.2845C11.8128 20.7562 5.76585 19.8106 2.56335 15.8594C-0.5243 12.05 -0.335123 6.54532 3.01602 3.06013C6.48878 -0.546627 11.9479 -1.02618 15.8868 1.95244C18.0624 3.59372 19.3528 5.78884 19.7042 8.49053C20.0487 11.1855 19.3326 13.6102 17.6232 15.8256C17.7111 15.8864 17.8124 15.9269 17.88 15.9945C19.1299 17.2373 20.373 18.4868 21.623 19.7296C21.9202 20.0268 22.0689 20.3645 21.9811 20.7832C21.8121 21.5937 20.846 21.9179 20.2177 21.3776C20.1096 21.283 20.0082 21.1817 19.9069 21.0804C18.711 19.8917 17.5219 18.6962 16.3328 17.5074C16.2652 17.4399 16.2247 17.3588 16.1706 17.2845ZM17.63 9.72656C17.6435 5.56595 14.2856 2.18884 10.1102 2.16857C5.928 2.14831 2.54308 5.49841 2.52281 9.68603C2.50254 13.8737 5.88071 17.2643 10.0696 17.2778C14.2315 17.2845 17.6165 13.9074 17.63 9.72656Z" fill="#323232"/>
</svg>
